# xmcd CD database file
#
# Track frame offsets:
#	150
#	21965
#	41786
#	57030
#	73700
#	93941
#	112290
#	130863
#	151754
#	179638
#
# Disc length: 2665 seconds
#
# Revision: 0
# Processed by: cddbd v1.4PL0 Copyright (c) Steve Scherf et al.
# Submitted via: Feurio! 1.66 - http://www.feurio.com
#
DISCID=890a670a
DTITLE=BONNY B. - if this is life
DYEAR=2003
DGENRE=
TTITLE0=If this is life
TTITLE1=She
TTITLE2=Rhythm is love
TTITLE3=So wrong
TTITLE4=Ten years after
TTITLE5=Castaway
TTITLE6=Shout
TTITLE7=I don'agree
TTITLE8=Khmer
TTITLE9=Optical illusion
EXTD=
EXTT0=
EXTT1=
EXTT2=
EXTT3=
EXTT4=
EXTT5=
EXTT6=
EXTT7=
EXTT8=
EXTT9=
PLAYORDER=
